<svg width="400" height="180" viewBox="0 0 400 180" xmlns="http://www.w3.org/2000/svg">
  <rect width="400" height="180" fill="#f8f9fa" rx="10"/>
  <g transform="translate(150, 90)">
    <circle cx="0" cy="0" r="15" fill="#e7f5ff"/>
    <rect x="-15" y="15" width="30" height="35" rx="5" fill="#228be6"/>
    <text x="-10" y="70" font-family="Arial" font-size="12" fill="#495057">LB</text>
  </g>
  <rect x="280" y="40" width="60" height="30" rx="5" fill="#adb5bd"/>
  <rect x="280" y="85" width="60" height="30" rx="5" fill="#adb5bd"/>
  <rect x="280" y="130" width="60" height="30" rx="5" fill="#adb5bd"/>
  <circle cx="40" cy="80" r="8" fill="#fa5252"/>
  <circle cx="40" cy="100" r="8" fill="#fa5252"/>
  <circle cx="60" cy="90" r="8" fill="#fa5252"/>
  <path d="M80 90 L130 90" stroke="#adb5bd" stroke-width="2" marker-end="url(#arrow)"/>
  <path d="M170 80 L270 55" stroke="#adb5bd" stroke-width="2" marker-end="url(#arrow)"/>
  <path d="M170 90 L270 100" stroke="#adb5bd" stroke-width="2" marker-end="url(#arrow)"/>
  <path d="M170 100 L270 145" stroke="#adb5bd" stroke-width="2" marker-end="url(#arrow)"/>
  <text x="220" y="30" font-family="Arial" font-size="14" fill="#495057" font-weight="bold">Load Balancing</text>
  <defs>
    <marker id="arrow" markerWidth="10" markerHeight="10" refX="9" refY="3" orient="auto" markerUnits="strokeWidth">
      <path d="M0,0 L0,6 L9,3 z" fill="#adb5bd" />
    </marker>
  </defs>
</svg>